<?xml version="1.0" encoding="utf-8"?>
<svg fill="#222222" viewBox="0 0 42 42" xmlns="http://www.w3.org/2000/svg">
  <defs>
    <clipPath clipPathUnits="userSpaceOnUse" id="clip-e1">
      <path d="m 88.630858,144.78906 c -5.660176,-0.53551 -11.39698,1.445 -15.539061,5.60742 -5.522773,5.5499 -7.152392,13.91353 -4.117187,21.13086 3.035202,7.21734 10.153071,11.9032 17.982422,11.83789 a 3.6648456,3.6648456 0 1 0 -0.06055,-7.32812 c -4.878552,0.0407 -9.27472,-2.85234 -11.166015,-7.34961 -1.891289,-4.49725 -0.8847,-9.66285 2.55664,-13.12109 3.441343,-3.45825 8.600961,-4.49034 13.107424,-2.6211 3.337308,1.38429 5.784646,4.1551 6.832031,7.47657 H 86.878906 a 3.6650351,3.6650351 0 1 0 0,7.33007 h 15.585934 a 3.6648456,3.6648456 0 0 0 3.66407,-3.65234 c 0.0269,-7.82953 -4.69367,-14.92401 -11.925784,-17.92383 -1.80803,-0.74995 -3.68554,-1.20821 -5.572268,-1.38672 z"/>
    </clipPath>
    <clipPath clipPathUnits="userSpaceOnUse" id="clip-e2">
      <path d="m 169.70643,-4.3620448 c -3.29385,4.63410154 -4.44708,10.5925745 -2.91336,16.2609318 2.04497,7.557811 8.47328,13.150918 16.24127,14.131019 7.768,0.980107 15.38501,-2.841218 19.24312,-9.65429 a 3.6648456,3.6648456 45 1 0 -6.37661,-3.61162 c -2.40403,4.2453 -7.10756,6.605973 -11.94796,5.995248 -4.84038,-0.610722 -8.81062,-4.065252 -10.08488,-8.774661 -1.27426,-4.7094152 0.41174,-9.69382045 4.28378,-12.6619122 2.86748,-2.198048 6.49074,-2.9320999 9.89091,-2.1784265 l -5.67382,9.8273564 a 3.6650351,3.6650351 45 1 0 6.34802,3.6650348 L 196.50987,-4.86118 a 3.6648456,3.6648456 45 0 0 -1.33098,-4.9993469 c -6.76713,-3.9380621 -15.27141,-3.3971691 -21.48539,1.366117 -1.55349,1.1908247 -2.88911,2.5876667 -3.98707,4.1323651 z"/>
    </clipPath>
    <clipPath clipPathUnits="userSpaceOnUse" id="clip-e3">
      <path d="m 81.075575,-149.1511 c 2.366323,5.16961 6.949897,9.14757 12.625699,10.65351 7.567736,2.00791 15.625666,-0.76262 20.358456,-6.99984 4.7328,-6.23724 5.23194,-14.74442 1.2607,-21.49218 a 3.6648456,3.6648456 0 1 0 -6.31606,3.7165 c 2.47452,4.2046 2.16716,9.45831 -0.78194,13.34485 -2.94909,3.88653 -7.92592,5.5976 -12.64152,4.34643 -4.715604,-1.25116 -8.189228,-5.20348 -8.823651,-10.04081 -0.469823,-3.58234 0.7061,-7.0872 3.058885,-9.655 l 5.673827,9.82736 a 3.6650372,3.6650372 45 1 0 6.348029,-3.66504 l -7.79297,-13.49781 a 3.6648456,3.6648456 0 0 0 -4.995054,-1.34701 c -6.794023,3.89147 -10.577738,11.52684 -9.5596,19.28995 0.254539,1.94078 0.79643,3.79588 1.585199,5.51909 z"/>
    </clipPath>
    <clipPath clipPathUnits="userSpaceOnUse" id="clip-e4">
      <path d="m -88.630858,-144.78906 c 5.660176,0.53551 11.39698,-1.445 15.539061,-5.60742 5.522773,-5.5499 7.152392,-13.91353 4.117187,-21.13086 -3.035202,-7.21734 -10.153071,-11.9032 -17.982422,-11.83789 a 3.6648456,3.6648456 0 1 0 0.06055,7.32812 c 4.878552,-0.0407 9.27472,2.85234 11.166015,7.34961 1.891289,4.49725 0.8847,9.66285 -2.55664,13.12109 -3.441343,3.45825 -8.600961,4.49034 -13.107424,2.6211 -3.337308,-1.38429 -5.784646,-4.1551 -6.832031,-7.47657 h 11.347654 a 3.6650351,3.6650351 0 1 0 0,-7.33007 h -15.585932 a 3.6648456,3.6648456 0 0 0 -3.66407,3.65234 c -0.0269,7.82953 4.69367,14.92401 11.925782,17.92383 1.80803,0.74995 3.68554,1.20821 5.572268,1.38672 z"/>
    </clipPath>
    <clipPath clipPathUnits="userSpaceOnUse" id="clip-e5">
      <path d="m -169.70643,4.3620448 c 3.29385,-4.63410154 4.44708,-10.5925745 2.91336,-16.2609318 -2.04497,-7.557811 -8.47328,-13.150918 -16.24127,-14.131019 -7.768,-0.980107 -15.38501,2.841218 -19.24312,9.65429 a 3.6648456,3.6648456 0 1 0 6.37661,3.61162 c 2.40403,-4.2453 7.10756,-6.605973 11.94796,-5.995248 4.84038,0.610722 8.81062,4.065252 10.08488,8.774661 1.27426,4.7094152 -0.41174,9.69382045 -4.28378,12.6619122 -2.86748,2.198048 -6.49074,2.9320999 -9.89091,2.1784265 l 5.67382,-9.8273564 a 3.6650351,3.6650351 45 1 0 -6.34802,-3.6650348 L -196.50987,4.86118 a 3.6648456,3.6648456 0 0 0 1.33098,4.9993469 c 6.76713,3.9380621 15.27141,3.3971691 21.48539,-1.366117 1.55349,-1.1908247 2.88911,-2.5876667 3.98707,-4.1323651 z"/>
    </clipPath>
    <clipPath clipPathUnits="userSpaceOnUse" id="clip-e6">
      <path d="m -81.075575,149.1511 c -2.366323,-5.16961 -6.949897,-9.14757 -12.625699,-10.65351 -7.567736,-2.00791 -15.625666,0.76262 -20.358456,6.99984 -4.7328,6.23724 -5.23194,14.74442 -1.2607,21.49218 a 3.6648456,3.6648456 45 1 0 6.31606,-3.7165 c -2.47452,-4.2046 -2.16716,-9.45831 0.78194,-13.34485 2.94909,-3.88653 7.92592,-5.5976 12.64152,-4.34643 4.715604,1.25116 8.189228,5.20348 8.823651,10.04081 0.469823,3.58234 -0.7061,7.0872 -3.058885,9.655 l -5.673827,-9.82736 a 3.6650372,3.6650372 0 1 0 -6.348029,3.66504 l 7.79297,13.49781 a 3.6648456,3.6648456 45 0 0 4.995054,1.34701 c 6.794023,-3.89147 10.577738,-11.52684 9.5596,-19.28995 -0.254539,-1.94078 -0.79643,-3.79588 -1.585199,-5.51909 z"/>
    </clipPath>
  </defs>
  <g transform="translate(0,-1080.5197)">
    <g transform="matrix(1.0682079,0,0,1.0682079,513.67789,1099.9803)">
      <path transform="translate(-547.91761,-162.47656)" d="m 81.462413,143.87345 a 20.926838,20.926838 0 0 1 20.213777,5.41626 l -14.797513,14.79751 z" clip-path="url(#clip-e1)"/>
      <path d="m 180.12678,-13.409312 a 20.926838,20.926838 0 0 1 20.21377,5.4162634 L 185.54305,6.804461 Z" transform="rotate(60,-133.24997,-555.74885)" clip-path="url(#clip-e2)"/>
      <path transform="rotate(120,-227.05585,-239.40848)" d="m 93.248104,-177.49655 a 20.926838,20.926838 0 0 1 20.213776,5.41626 l -14.797512,14.79751 z" clip-path="url(#clip-e3)"/>
      <path d="m -92.294949,-184.30102 a 20.926838,20.926838 0 0 1 20.213772,5.41626 l -14.797508,14.79751 z" transform="rotate(180,-273.9588,-81.238294)" clip-path="url(#clip-e4)"/>
      <path transform="rotate(-120,-320.86175,76.931907)" d="m -190.95932,-27.018264 a 20.926838,20.926838 0 0 1 20.21377,5.416263 l -14.79751,14.79751 z" clip-path="url(#clip-e5)"/>
      <path d="m -104.08065,137.06897 a 20.926838,20.926838 0 0 1 20.213775,5.41627 l -14.797508,14.79751 z" transform="rotate(-60,-414.66763,393.27227)" clip-path="url(#clip-e6)"/>
    </g>
  </g>
</svg>
