<?xml version="1.0" encoding="UTF-8" standalone="no"?>
<!-- Uploaded to: SVG Repo, www.svgrepo.com, Generator: SVG Repo Mixer Tools -->

<svg
   width="800px"
   height="800px"
   viewBox="0 0 128 128"
   aria-hidden="true"
   role="img"
   class="iconify iconify--noto"
   preserveAspectRatio="xMidYMid meet"
   version="1.1"
   id="svg23"
   sodipodi:docname="io.github.tobagin.Sidestep.svg"
   inkscape:version="1.4.3 (0d15f75042, 2025-12-25)"
   xmlns:inkscape="http://www.inkscape.org/namespaces/inkscape"
   xmlns:sodipodi="http://sodipodi.sourceforge.net/DTD/sodipodi-0.dtd"
   xmlns="http://www.w3.org/2000/svg"
   xmlns:svg="http://www.w3.org/2000/svg">
  <defs
     id="defs23" />
  <sodipodi:namedview
     id="namedview23"
     pagecolor="#ffffff"
     bordercolor="#000000"
     borderopacity="0.25"
     inkscape:showpageshadow="2"
     inkscape:pageopacity="0.0"
     inkscape:pagecheckerboard="0"
     inkscape:deskcolor="#d1d1d1"
     inkscape:zoom="0.76809474"
     inkscape:cx="384.0672"
     inkscape:cy="411.40758"
     inkscape:window-width="1268"
     inkscape:window-height="907"
     inkscape:window-x="26"
     inkscape:window-y="23"
     inkscape:window-maximized="0"
     inkscape:current-layer="svg23" />
  <path
     d="M29.7 41.3c-1.9 0-3.7 1.5-3.7 3.7v7.6c0 1.4-1.1 2.5-2.5 2.5h-15C6 55 4 57 4 59.5v9.9C4 71.9 6.1 74 8.6 74h14.9c1.4 0 2.5 1.1 2.5 2.5V83c0 2.2 1.8 3.7 3.7 3.7c.9 0 1.8-.3 2.6-1.1l18.3-18.3c1.8-1.8 1.9-4.8 0-6.7L32.3 42.4c-.8-.8-1.7-1.1-2.6-1.1z"
     fill="#b0bec5"
     id="path1" />
  <path
     d="M113.74 124h-46.8c-4.7 0-8.6-3.8-8.6-8.6V12.6c0-4.7 3.9-8.6 8.6-8.6h46.8c4.7 0 8.6 3.8 8.6 8.6v102.9c0 4.7-3.9 8.5-8.6 8.5z"
     fill="#424242"
     id="path2" />
  <path
     d="M113.11 120.11H66.26c-2.15 0-3.89-1.74-3.89-3.89V19.65c0-2.14 1.74-3.88 3.88-3.88h48.15c2.15 0 3.89 1.74 3.89 3.89v95.93c.01.93-1.39 4.52-5.18 4.52z"
     fill="#000000"
     id="path3" />
  <g
     id="g8"
     transform="matrix(2.8537343,0,0,2.8537343,67.652244,42.518229)">
    <path
       fill="#202020"
       d="m 13.338,12.033 c -0.1,-0.112 -0.146,-0.319 -0.197,-0.54 -0.05,-0.22 -0.107,-0.457 -0.288,-0.61 V 10.882 A 0.756,0.756 0 0 0 12.63,10.748 C 12.882,10.003 12.783,9.261 12.53,8.591 12.218,7.768 11.675,7.051 11.26,6.561 10.796,5.975 10.342,5.419 10.35,4.598 10.364,3.344 10.488,1.019 8.282,1.016 8.192,1.016 8.099,1.02 8.002,1.028 5.536,1.226 6.19,3.831 6.153,4.703 6.108,5.341 5.979,5.843 5.54,6.467 5.025,7.08 4.3,8.071 3.956,9.104 3.794,9.591 3.716,10.088 3.788,10.558 3.765,10.578 3.744,10.599 3.724,10.621 3.573,10.782 3.461,10.978 3.336,11.11 3.22,11.226 3.054,11.27 2.872,11.335 2.689,11.401 2.489,11.497 2.368,11.73 v 10e-4 A 0.702,0.702 0 0 0 2.291,12.07 c 0,0.108 0.016,0.217 0.032,0.322 0.034,0.22 0.068,0.427 0.023,0.567 -0.144,0.395 -0.163,0.667 -0.061,0.865 0.102,0.199 0.31,0.286 0.547,0.335 0.473,0.1 1.114,0.075 1.619,0.342 l 0.043,-0.082 -0.043,0.082 c 0.54,0.283 1.089,0.383 1.526,0.284 a 0.99,0.99 0 0 0 0.706,-0.552 c 0.342,-0.002 0.717,-0.146 1.318,-0.18 0.408,-0.032 0.918,0.145 1.503,0.113 a 0.806,0.806 0 0 0 0.068,0.183 l 0.001,10e-4 c 0.227,0.455 0.65,0.662 1.1,0.627 0.45,-0.036 0.928,-0.301 1.315,-0.762 l -0.07,-0.06 0.07,0.06 c 0.37,-0.448 0.982,-0.633 1.388,-0.878 0.203,-0.123 0.368,-0.276 0.38,-0.499 0.013,-0.222 -0.118,-0.471 -0.418,-0.805 z"
       id="path1-7" />
    <path
       fill="#f8bf11"
       d="m 13.571,12.828 c -0.007,0.137 -0.107,0.24 -0.29,0.35 -0.368,0.222 -1.019,0.414 -1.434,0.918 -0.362,0.43 -0.802,0.665 -1.19,0.696 -0.387,0.03 -0.721,-0.13 -0.919,-0.526 V 14.264 C 9.615,14.031 9.666,13.664 9.769,13.277 9.872,12.89 10.02,12.492 10.04,12.169 v -0.001 c 0.02,-0.415 0.044,-0.776 0.114,-1.055 0.07,-0.28 0.179,-0.468 0.373,-0.575 a 0.876,0.876 0 0 1 0.027,-0.014 c 0.022,0.359 0.2,0.725 0.514,0.804 0.343,0.09 0.838,-0.204 1.047,-0.445 l 0.122,-0.004 c 0.184,-0.005 0.337,0.006 0.495,0.143 v 10e-4 c 0.121,0.102 0.179,0.296 0.229,0.512 0.05,0.217 0.09,0.453 0.239,0.621 0.287,0.32 0.38,0.534 0.371,0.672 z m -6.979,1.015 v 0.003 c -0.034,0.435 -0.28,0.672 -0.656,0.758 -0.377,0.086 -0.888,0 -1.398,-0.266 -0.565,-0.3 -1.237,-0.27 -1.667,-0.36 C 2.655,13.933 2.514,13.865 2.45,13.74 2.386,13.614 2.384,13.395 2.521,13.02 V 13.019 L 2.522,13.017 C 2.59,12.808 2.54,12.579 2.507,12.364 2.474,12.15 2.458,11.954 2.531,11.818 L 2.532,11.817 C 2.626,11.636 2.764,11.571 2.935,11.51 3.105,11.448 3.308,11.4 3.468,11.24 L 3.469,11.239 H 3.47 C 3.618,11.082 3.73,10.886 3.86,10.747 3.97,10.63 4.08,10.552 4.245,10.551 H 4.25 a 0.61,0.61 0 0 1 0.093,0.008 c 0.22,0.033 0.411,0.187 0.596,0.437 l 0.533,0.971 v 10e-4 c 0.142,0.296 0.441,0.622 0.695,0.954 0.254,0.333 0.45,0.666 0.425,0.921 z"
       id="path2-5" />
    <path
       fill="#d6a312"
       d="M 9.25,4.788 C 9.207,4.704 9.12,4.624 8.97,4.563 8.66,4.43 8.526,4.421 8.353,4.309 8.073,4.128 7.84,4.065 7.647,4.065 A 0.834,0.834 0 0 0 7.375,4.112 c -0.236,0.08 -0.392,0.25 -0.49,0.342 -0.02,0.019 -0.044,0.035 -0.104,0.08 -0.06,0.043 -0.15,0.11 -0.28,0.208 -0.117,0.086 -0.154,0.2 -0.114,0.332 0.04,0.132 0.167,0.285 0.4,0.417 h 0.001 c 0.145,0.085 0.244,0.2 0.358,0.291 A 0.801,0.801 0 0 0 7.335,5.899 C 7.407,5.93 7.491,5.951 7.595,5.957 7.843,5.972 8.025,5.897 8.185,5.806 8.345,5.714 8.481,5.602 8.637,5.551 H 8.638 C 8.958,5.451 9.186,5.25 9.258,5.058 A 0.324,0.324 0 0 0 9.25,4.788 Z"
       id="path3-3" />
    <path
       fill="#202020"
       d="M 8.438,5.26 C 8.183,5.393 7.886,5.554 7.569,5.554 7.253,5.554 7.003,5.408 6.824,5.265 6.734,5.195 6.661,5.123 6.606,5.072 6.51,4.997 6.522,4.891 6.561,4.894 6.627,4.902 6.637,4.989 6.678,5.028 6.734,5.08 6.804,5.148 6.889,5.215 7.059,5.35 7.286,5.481 7.569,5.481 7.853,5.481 8.183,5.315 8.385,5.201 8.5,5.137 8.645,5.022 8.764,4.935 8.854,4.868 8.851,4.788 8.926,4.797 9.001,4.806 8.946,4.886 8.841,4.977 8.736,5.069 8.571,5.191 8.438,5.26 Z"
       id="path4-5" />
    <path
       fill="#ffffff"
       d="m 12.337,10.694 a 1.724,1.724 0 0 0 -0.104,0 h -0.01 c 0.088,-0.277 -0.106,-0.48 -0.621,-0.713 -0.534,-0.235 -0.96,-0.212 -1.032,0.265 -0.005,0.025 -0.009,0.05 -0.011,0.076 a 0.801,0.801 0 0 0 -0.12,0.054 c -0.252,0.137 -0.389,0.386 -0.465,0.692 -0.076,0.305 -0.098,0.674 -0.119,1.09 -0.013,0.208 -0.099,0.49 -0.186,0.79 -0.875,0.624 -2.09,0.894 -3.122,0.19 -0.07,-0.11 -0.15,-0.22 -0.233,-0.328 a 13.85,13.85 0 0 0 -0.16,-0.205 0.65,0.65 0 0 0 0.268,-0.05 0.34,0.34 0 0 0 0.186,-0.192 c 0.063,-0.17 0,-0.408 -0.202,-0.68 C 6.205,11.41 5.864,11.103 5.363,10.795 4.995,10.565 4.789,10.285 4.693,9.981 4.596,9.676 4.609,9.346 4.683,9.021 4.826,8.396 5.193,7.788 5.426,7.407 5.489,7.361 5.449,7.493 5.19,7.974 4.958,8.414 4.523,9.429 5.118,10.222 5.134,9.658 5.268,9.082 5.495,8.545 5.824,7.798 6.513,6.504 6.567,5.472 6.596,5.492 6.692,5.558 6.736,5.582 6.862,5.657 6.957,5.766 7.08,5.865 a 0.85,0.85 0 0 0 0.575,0.2 c 0.24,0 0.427,-0.079 0.582,-0.168 C 8.407,5.801 8.541,5.693 8.67,5.652 8.94,5.567 9.156,5.417 9.278,5.242 c 0.21,0.83 0.7,2.027 1.014,2.611 0.167,0.31 0.5,0.969 0.643,1.762 0.091,-0.002 0.191,0.01 0.299,0.038 C 11.609,8.68 10.915,7.631 10.598,7.339 10.47,7.215 10.463,7.159 10.528,7.162 c 0.343,0.304 0.795,0.917 0.96,1.608 0.075,0.315 0.09,0.646 0.01,0.973 0.04,0.017 0.08,0.034 0.12,0.054 0.603,0.293 0.826,0.548 0.719,0.897 z"
       id="path5-6" />
    <path
       fill="#e6e6e6"
       d="M 8.04,8.062 C 7.484,8.064 6.941,8.313 6.482,8.778 6.022,9.242 5.668,9.9 5.464,10.666 l 0.061,0.038 v 0.004 c 0.47,0.298 0.805,0.598 1.012,0.878 0.219,0.296 0.316,0.584 0.223,0.834 a 0.513,0.513 0 0 1 -0.27,0.283 l -0.041,0.015 c 0.074,0.097 0.146,0.197 0.213,0.3 0.944,0.628 2.042,0.396 2.867,-0.172 0.08,-0.278 0.153,-0.536 0.163,-0.698 0.021,-0.415 0.042,-0.792 0.124,-1.12 0.082,-0.33 0.242,-0.63 0.544,-0.795 0.017,-0.01 0.034,-0.015 0.051,-0.023 a 0.756,0.756 0 0 1 0.022,-0.094 C 10.191,9.494 9.842,8.976 9.423,8.616 9.003,8.256 8.526,8.065 8.041,8.062 Z m 2.37,2.155 -0.002,0.005 V 10.22 l 0.001,-0.004 z"
       id="path6" />
    <path
       fill="#ffffff"
       d="M 9.278,3.833 A 1.05,1.05 0 0 1 9.063,4.489 4.119,4.119 0 0 0 8.845,4.399 L 8.718,4.354 C 8.747,4.319 8.803,4.279 8.825,4.227 A 0.669,0.669 0 0 0 8.875,3.984 L 8.876,3.974 A 0.673,0.673 0 0 0 8.841,3.738 0.434,0.434 0 0 0 8.733,3.554 0.223,0.223 0 0 0 8.577,3.484 H 8.57 A 0.228,0.228 0 0 0 8.419,3.544 0.434,0.434 0 0 0 8.297,3.719 0.676,0.676 0 0 0 8.247,3.962 v 0.01 A 0.718,0.718 0 0 0 8.256,4.112 1.773,1.773 0 0 0 7.902,3.992 1.196,1.196 0 0 1 7.892,3.859 V 3.846 A 1.035,1.035 0 0 1 7.98,3.399 0.793,0.793 0 0 1 8.23,3.071 0.554,0.554 0 0 1 8.576,2.948 h 0.006 c 0.125,0 0.232,0.036 0.342,0.116 A 0.78,0.78 0 0 1 9.181,3.388 C 9.244,3.526 9.275,3.661 9.278,3.821 L 9.279,3.833 Z M 7.388,3.997 A 1.05,1.05 0 0 0 7.111,4.122 0.623,0.623 0 0 0 7.113,3.972 V 3.964 A 0.651,0.651 0 0 0 7.065,3.772 0.37,0.37 0 0 0 6.969,3.631 0.158,0.158 0 0 0 6.85,3.586 C 6.808,3.59 6.773,3.61 6.74,3.651 A 0.372,0.372 0 0 0 6.67,3.807 0.626,0.626 0 0 0 6.657,4.012 V 4.02 A 0.634,0.634 0 0 0 6.705,4.213 0.367,0.367 0 0 0 6.821,4.369 L 6.719,4.449 6.641,4.505 A 0.706,0.706 0 0 1 6.481,4.265 C 6.428,4.145 6.399,4.025 6.391,3.884 V 3.883 A 1.071,1.071 0 0 1 6.436,3.493 0.668,0.668 0 0 1 6.603,3.201 0.359,0.359 0 0 1 6.867,3.083 c 0.084,0 0.158,0.028 0.235,0.09 a 0.68,0.68 0 0 1 0.199,0.271 c 0.053,0.12 0.08,0.24 0.089,0.382 v 10e-4 c 0.003,0.06 0.003,0.115 -0.002,0.17 z"
       id="path7" />
    <path
       fill="#202020"
       d="m 7.806,4.335 c 0.01,0.034 0.065,0.029 0.097,0.045 0.027,0.014 0.05,0.045 0.08,0.046 0.03,10e-4 0.076,-0.01 0.08,-0.04 C 8.068,4.348 8.011,4.323 7.975,4.309 7.928,4.29 7.868,4.281 7.824,4.306 7.814,4.311 7.803,4.324 7.806,4.336 Z m -0.322,0 C 7.474,4.369 7.419,4.364 7.388,4.38 7.36,4.394 7.338,4.425 7.307,4.426 7.277,4.427 7.231,4.416 7.227,4.386 7.222,4.348 7.279,4.323 7.315,4.309 7.362,4.29 7.423,4.281 7.467,4.306 c 0.01,0.005 0.02,0.018 0.017,0.03 z"
       id="path8" />
  </g>
  <path
     d="M99.99 11.59h-19.2c-.7 0-1.2-.6-1.2-1.2s.6-1.2 1.2-1.2h19.1c.7 0 1.2.6 1.2 1.2s-.5 1.2-1.1 1.2z"
     fill="#212121"
     id="path4" />
  <path
     d="M113.74 6c3.64 0 6.6 2.96 6.6 6.6v102.9c0 3.58-2.96 6.5-6.6 6.5h-46.8c-3.64 0-6.6-2.96-6.6-6.6V12.6c0-3.58 3.02-6.6 6.6-6.6h46.8m0-2h-46.8c-4.7 0-8.6 3.9-8.6 8.6v102.8c0 4.8 3.9 8.6 8.6 8.6h46.8c4.7 0 8.6-3.8 8.6-8.5V12.6c0-4.8-3.9-8.6-8.6-8.6z"
     fill="#757575"
     id="path5" />
</svg>
